<mxfile host="app.diagrams.net" modified="2024-04-28T14:28:13.422Z" agent="Mozilla/5.0 (Windows NT 10.0; Win64; x64) AppleWebKit/537.36 (KHTML, like Gecko) Chrome/124.0.0.0 Safari/537.36" etag="Qwj5aKAzkoVzAcKP8_QV" version="24.3.1" type="github">
  <diagram name="Page-1" id="2YBvvXClWsGukQMizWep">
    <mxGraphModel dx="3585" dy="3075" grid="1" gridSize="10" guides="1" tooltips="1" connect="1" arrows="1" fold="1" page="1" pageScale="1" pageWidth="850" pageHeight="1100" math="0" shadow="0">
      <root>
        <mxCell id="0" />
        <mxCell id="1" parent="0" />
        <mxCell id="ZcWN7I3vVap4NGYUcvSz-65" value="" style="edgeStyle=orthogonalEdgeStyle;rounded=0;orthogonalLoop=1;jettySize=auto;html=1;" edge="1" parent="1" source="ZcWN7I3vVap4NGYUcvSz-1" target="ZcWN7I3vVap4NGYUcvSz-63">
          <mxGeometry relative="1" as="geometry" />
        </mxCell>
        <mxCell id="ZcWN7I3vVap4NGYUcvSz-1" value="Identificação do usuário" style="rounded=1;whiteSpace=wrap;html=1;" vertex="1" parent="1">
          <mxGeometry x="20" y="-10" width="120" height="60" as="geometry" />
        </mxCell>
        <mxCell id="ZcWN7I3vVap4NGYUcvSz-7" value="" style="edgeStyle=orthogonalEdgeStyle;rounded=0;orthogonalLoop=1;jettySize=auto;html=1;" edge="1" parent="1" source="ZcWN7I3vVap4NGYUcvSz-2" target="ZcWN7I3vVap4NGYUcvSz-6">
          <mxGeometry relative="1" as="geometry" />
        </mxCell>
        <mxCell id="ZcWN7I3vVap4NGYUcvSz-2" value="Funcionario(a)" style="rounded=1;whiteSpace=wrap;html=1;" vertex="1" parent="1">
          <mxGeometry x="180" y="115" width="120" height="60" as="geometry" />
        </mxCell>
        <mxCell id="ZcWN7I3vVap4NGYUcvSz-60" value="" style="edgeStyle=orthogonalEdgeStyle;rounded=0;orthogonalLoop=1;jettySize=auto;html=1;" edge="1" parent="1" source="ZcWN7I3vVap4NGYUcvSz-4" target="ZcWN7I3vVap4NGYUcvSz-36">
          <mxGeometry relative="1" as="geometry" />
        </mxCell>
        <mxCell id="ZcWN7I3vVap4NGYUcvSz-4" value="Cliente" style="rounded=1;whiteSpace=wrap;html=1;" vertex="1" parent="1">
          <mxGeometry x="340" y="-10" width="120" height="60" as="geometry" />
        </mxCell>
        <mxCell id="ZcWN7I3vVap4NGYUcvSz-9" value="" style="edgeStyle=orthogonalEdgeStyle;rounded=0;orthogonalLoop=1;jettySize=auto;html=1;" edge="1" parent="1" source="ZcWN7I3vVap4NGYUcvSz-6" target="ZcWN7I3vVap4NGYUcvSz-8">
          <mxGeometry relative="1" as="geometry" />
        </mxCell>
        <mxCell id="ZcWN7I3vVap4NGYUcvSz-6" value="Identificação do número quarto" style="rounded=1;whiteSpace=wrap;html=1;" vertex="1" parent="1">
          <mxGeometry x="180" y="215" width="120" height="60" as="geometry" />
        </mxCell>
        <mxCell id="ZcWN7I3vVap4NGYUcvSz-11" value="" style="edgeStyle=orthogonalEdgeStyle;rounded=0;orthogonalLoop=1;jettySize=auto;html=1;" edge="1" parent="1" source="ZcWN7I3vVap4NGYUcvSz-8" target="ZcWN7I3vVap4NGYUcvSz-10">
          <mxGeometry relative="1" as="geometry" />
        </mxCell>
        <mxCell id="ZcWN7I3vVap4NGYUcvSz-8" value="Relato do problema" style="rounded=1;whiteSpace=wrap;html=1;" vertex="1" parent="1">
          <mxGeometry x="180" y="305" width="120" height="60" as="geometry" />
        </mxCell>
        <mxCell id="ZcWN7I3vVap4NGYUcvSz-13" value="" style="edgeStyle=orthogonalEdgeStyle;rounded=0;orthogonalLoop=1;jettySize=auto;html=1;" edge="1" parent="1" source="ZcWN7I3vVap4NGYUcvSz-10" target="ZcWN7I3vVap4NGYUcvSz-12">
          <mxGeometry relative="1" as="geometry" />
        </mxCell>
        <mxCell id="ZcWN7I3vVap4NGYUcvSz-10" value="Tipo problema" style="rounded=1;whiteSpace=wrap;html=1;" vertex="1" parent="1">
          <mxGeometry x="180" y="395" width="120" height="60" as="geometry" />
        </mxCell>
        <mxCell id="ZcWN7I3vVap4NGYUcvSz-15" value="" style="edgeStyle=orthogonalEdgeStyle;rounded=0;orthogonalLoop=1;jettySize=auto;html=1;" edge="1" parent="1" source="ZcWN7I3vVap4NGYUcvSz-12" target="ZcWN7I3vVap4NGYUcvSz-14">
          <mxGeometry relative="1" as="geometry" />
        </mxCell>
        <mxCell id="ZcWN7I3vVap4NGYUcvSz-12" value="Criticidade" style="rounded=1;whiteSpace=wrap;html=1;" vertex="1" parent="1">
          <mxGeometry x="180" y="485" width="120" height="60" as="geometry" />
        </mxCell>
        <mxCell id="ZcWN7I3vVap4NGYUcvSz-17" value="" style="edgeStyle=orthogonalEdgeStyle;rounded=0;orthogonalLoop=1;jettySize=auto;html=1;" edge="1" parent="1" source="ZcWN7I3vVap4NGYUcvSz-14" target="ZcWN7I3vVap4NGYUcvSz-16">
          <mxGeometry relative="1" as="geometry" />
        </mxCell>
        <mxCell id="ZcWN7I3vVap4NGYUcvSz-14" value="Envio para o sistema" style="rounded=1;whiteSpace=wrap;html=1;" vertex="1" parent="1">
          <mxGeometry x="180" y="575" width="120" height="60" as="geometry" />
        </mxCell>
        <mxCell id="ZcWN7I3vVap4NGYUcvSz-19" value="" style="edgeStyle=orthogonalEdgeStyle;rounded=0;orthogonalLoop=1;jettySize=auto;html=1;" edge="1" parent="1" source="ZcWN7I3vVap4NGYUcvSz-16" target="ZcWN7I3vVap4NGYUcvSz-18">
          <mxGeometry relative="1" as="geometry" />
        </mxCell>
        <mxCell id="ZcWN7I3vVap4NGYUcvSz-16" value="Recebimento do sistema" style="rounded=1;whiteSpace=wrap;html=1;" vertex="1" parent="1">
          <mxGeometry x="180" y="665" width="120" height="60" as="geometry" />
        </mxCell>
        <mxCell id="ZcWN7I3vVap4NGYUcvSz-21" value="" style="edgeStyle=orthogonalEdgeStyle;rounded=0;orthogonalLoop=1;jettySize=auto;html=1;" edge="1" parent="1" source="ZcWN7I3vVap4NGYUcvSz-18" target="ZcWN7I3vVap4NGYUcvSz-20">
          <mxGeometry relative="1" as="geometry" />
        </mxCell>
        <mxCell id="ZcWN7I3vVap4NGYUcvSz-18" value="Entrada na lista de manutenção" style="rounded=1;whiteSpace=wrap;html=1;" vertex="1" parent="1">
          <mxGeometry x="180" y="755" width="120" height="60" as="geometry" />
        </mxCell>
        <mxCell id="ZcWN7I3vVap4NGYUcvSz-23" value="" style="edgeStyle=orthogonalEdgeStyle;rounded=0;orthogonalLoop=1;jettySize=auto;html=1;" edge="1" parent="1" source="ZcWN7I3vVap4NGYUcvSz-20" target="ZcWN7I3vVap4NGYUcvSz-22">
          <mxGeometry relative="1" as="geometry" />
        </mxCell>
        <mxCell id="ZcWN7I3vVap4NGYUcvSz-20" value="Relaciona com um funcionário da manutenção" style="rounded=1;whiteSpace=wrap;html=1;" vertex="1" parent="1">
          <mxGeometry x="180" y="845" width="120" height="60" as="geometry" />
        </mxCell>
        <mxCell id="ZcWN7I3vVap4NGYUcvSz-25" value="" style="edgeStyle=orthogonalEdgeStyle;rounded=0;orthogonalLoop=1;jettySize=auto;html=1;" edge="1" parent="1" source="ZcWN7I3vVap4NGYUcvSz-22" target="ZcWN7I3vVap4NGYUcvSz-24">
          <mxGeometry relative="1" as="geometry" />
        </mxCell>
        <mxCell id="ZcWN7I3vVap4NGYUcvSz-22" value="Funcionário aceita o serviço" style="rounded=1;whiteSpace=wrap;html=1;" vertex="1" parent="1">
          <mxGeometry x="180" y="935" width="120" height="60" as="geometry" />
        </mxCell>
        <mxCell id="ZcWN7I3vVap4NGYUcvSz-27" value="" style="edgeStyle=orthogonalEdgeStyle;rounded=0;orthogonalLoop=1;jettySize=auto;html=1;" edge="1" parent="1" source="ZcWN7I3vVap4NGYUcvSz-24" target="ZcWN7I3vVap4NGYUcvSz-26">
          <mxGeometry relative="1" as="geometry" />
        </mxCell>
        <mxCell id="ZcWN7I3vVap4NGYUcvSz-24" value="Inicia manutenção" style="rounded=1;whiteSpace=wrap;html=1;" vertex="1" parent="1">
          <mxGeometry x="180" y="1025" width="120" height="60" as="geometry" />
        </mxCell>
        <mxCell id="ZcWN7I3vVap4NGYUcvSz-29" value="" style="edgeStyle=orthogonalEdgeStyle;rounded=0;orthogonalLoop=1;jettySize=auto;html=1;" edge="1" parent="1" source="ZcWN7I3vVap4NGYUcvSz-26" target="ZcWN7I3vVap4NGYUcvSz-28">
          <mxGeometry relative="1" as="geometry" />
        </mxCell>
        <mxCell id="ZcWN7I3vVap4NGYUcvSz-26" value="Finalização da manutenção" style="rounded=1;whiteSpace=wrap;html=1;" vertex="1" parent="1">
          <mxGeometry x="330" y="1030" width="120" height="60" as="geometry" />
        </mxCell>
        <mxCell id="ZcWN7I3vVap4NGYUcvSz-31" value="" style="edgeStyle=orthogonalEdgeStyle;rounded=0;orthogonalLoop=1;jettySize=auto;html=1;" edge="1" parent="1" source="ZcWN7I3vVap4NGYUcvSz-28" target="ZcWN7I3vVap4NGYUcvSz-30">
          <mxGeometry relative="1" as="geometry" />
        </mxCell>
        <mxCell id="ZcWN7I3vVap4NGYUcvSz-28" value="Descrição do problema resolvido com horario." style="rounded=1;whiteSpace=wrap;html=1;" vertex="1" parent="1">
          <mxGeometry x="530" y="1030" width="120" height="60" as="geometry" />
        </mxCell>
        <mxCell id="ZcWN7I3vVap4NGYUcvSz-33" value="" style="edgeStyle=orthogonalEdgeStyle;rounded=0;orthogonalLoop=1;jettySize=auto;html=1;" edge="1" parent="1" source="ZcWN7I3vVap4NGYUcvSz-30" target="ZcWN7I3vVap4NGYUcvSz-32">
          <mxGeometry relative="1" as="geometry" />
        </mxCell>
        <mxCell id="ZcWN7I3vVap4NGYUcvSz-30" value="Envio para o sistema" style="rounded=1;whiteSpace=wrap;html=1;" vertex="1" parent="1">
          <mxGeometry x="730" y="1030" width="120" height="60" as="geometry" />
        </mxCell>
        <mxCell id="ZcWN7I3vVap4NGYUcvSz-32" value="Finalização" style="rounded=1;whiteSpace=wrap;html=1;" vertex="1" parent="1">
          <mxGeometry x="930" y="1030" width="120" height="60" as="geometry" />
        </mxCell>
        <mxCell id="ZcWN7I3vVap4NGYUcvSz-34" value="" style="edgeStyle=orthogonalEdgeStyle;rounded=0;orthogonalLoop=1;jettySize=auto;html=1;" edge="1" parent="1" target="ZcWN7I3vVap4NGYUcvSz-36">
          <mxGeometry relative="1" as="geometry">
            <mxPoint x="570" y="-30" as="sourcePoint" />
          </mxGeometry>
        </mxCell>
        <mxCell id="ZcWN7I3vVap4NGYUcvSz-35" value="" style="edgeStyle=orthogonalEdgeStyle;rounded=0;orthogonalLoop=1;jettySize=auto;html=1;" edge="1" parent="1" source="ZcWN7I3vVap4NGYUcvSz-36" target="ZcWN7I3vVap4NGYUcvSz-38">
          <mxGeometry relative="1" as="geometry" />
        </mxCell>
        <mxCell id="ZcWN7I3vVap4NGYUcvSz-36" value="Relato do problema" style="rounded=1;whiteSpace=wrap;html=1;" vertex="1" parent="1">
          <mxGeometry x="510" y="-10" width="120" height="60" as="geometry" />
        </mxCell>
        <mxCell id="ZcWN7I3vVap4NGYUcvSz-37" value="" style="edgeStyle=orthogonalEdgeStyle;rounded=0;orthogonalLoop=1;jettySize=auto;html=1;" edge="1" parent="1" source="ZcWN7I3vVap4NGYUcvSz-38" target="ZcWN7I3vVap4NGYUcvSz-40">
          <mxGeometry relative="1" as="geometry" />
        </mxCell>
        <mxCell id="ZcWN7I3vVap4NGYUcvSz-38" value="Tipo problema" style="rounded=1;whiteSpace=wrap;html=1;" vertex="1" parent="1">
          <mxGeometry x="510" y="90" width="120" height="60" as="geometry" />
        </mxCell>
        <mxCell id="ZcWN7I3vVap4NGYUcvSz-39" value="" style="edgeStyle=orthogonalEdgeStyle;rounded=0;orthogonalLoop=1;jettySize=auto;html=1;" edge="1" parent="1" source="ZcWN7I3vVap4NGYUcvSz-40" target="ZcWN7I3vVap4NGYUcvSz-42">
          <mxGeometry relative="1" as="geometry" />
        </mxCell>
        <mxCell id="ZcWN7I3vVap4NGYUcvSz-40" value="Criticidade" style="rounded=1;whiteSpace=wrap;html=1;" vertex="1" parent="1">
          <mxGeometry x="510" y="180" width="120" height="60" as="geometry" />
        </mxCell>
        <mxCell id="ZcWN7I3vVap4NGYUcvSz-41" value="" style="edgeStyle=orthogonalEdgeStyle;rounded=0;orthogonalLoop=1;jettySize=auto;html=1;" edge="1" parent="1" source="ZcWN7I3vVap4NGYUcvSz-42" target="ZcWN7I3vVap4NGYUcvSz-44">
          <mxGeometry relative="1" as="geometry" />
        </mxCell>
        <mxCell id="ZcWN7I3vVap4NGYUcvSz-42" value="Envio para o sistema" style="rounded=1;whiteSpace=wrap;html=1;" vertex="1" parent="1">
          <mxGeometry x="510" y="270" width="120" height="60" as="geometry" />
        </mxCell>
        <mxCell id="ZcWN7I3vVap4NGYUcvSz-43" value="" style="edgeStyle=orthogonalEdgeStyle;rounded=0;orthogonalLoop=1;jettySize=auto;html=1;" edge="1" parent="1" source="ZcWN7I3vVap4NGYUcvSz-44" target="ZcWN7I3vVap4NGYUcvSz-46">
          <mxGeometry relative="1" as="geometry" />
        </mxCell>
        <mxCell id="ZcWN7I3vVap4NGYUcvSz-44" value="Recebimento do sistema" style="rounded=1;whiteSpace=wrap;html=1;" vertex="1" parent="1">
          <mxGeometry x="510" y="360" width="120" height="60" as="geometry" />
        </mxCell>
        <mxCell id="ZcWN7I3vVap4NGYUcvSz-45" value="" style="edgeStyle=orthogonalEdgeStyle;rounded=0;orthogonalLoop=1;jettySize=auto;html=1;" edge="1" parent="1" source="ZcWN7I3vVap4NGYUcvSz-46" target="ZcWN7I3vVap4NGYUcvSz-48">
          <mxGeometry relative="1" as="geometry" />
        </mxCell>
        <mxCell id="ZcWN7I3vVap4NGYUcvSz-46" value="Entrada na lista de manutenção" style="rounded=1;whiteSpace=wrap;html=1;" vertex="1" parent="1">
          <mxGeometry x="510" y="450" width="120" height="60" as="geometry" />
        </mxCell>
        <mxCell id="ZcWN7I3vVap4NGYUcvSz-47" value="" style="edgeStyle=orthogonalEdgeStyle;rounded=0;orthogonalLoop=1;jettySize=auto;html=1;" edge="1" parent="1" source="ZcWN7I3vVap4NGYUcvSz-48" target="ZcWN7I3vVap4NGYUcvSz-50">
          <mxGeometry relative="1" as="geometry" />
        </mxCell>
        <mxCell id="ZcWN7I3vVap4NGYUcvSz-48" value="Relaciona com um funcionário da manutenção" style="rounded=1;whiteSpace=wrap;html=1;" vertex="1" parent="1">
          <mxGeometry x="510" y="540" width="120" height="60" as="geometry" />
        </mxCell>
        <mxCell id="ZcWN7I3vVap4NGYUcvSz-49" value="" style="edgeStyle=orthogonalEdgeStyle;rounded=0;orthogonalLoop=1;jettySize=auto;html=1;" edge="1" parent="1" source="ZcWN7I3vVap4NGYUcvSz-50" target="ZcWN7I3vVap4NGYUcvSz-52">
          <mxGeometry relative="1" as="geometry" />
        </mxCell>
        <mxCell id="ZcWN7I3vVap4NGYUcvSz-50" value="Funcionário aceita o serviço" style="rounded=1;whiteSpace=wrap;html=1;" vertex="1" parent="1">
          <mxGeometry x="510" y="630" width="120" height="60" as="geometry" />
        </mxCell>
        <mxCell id="ZcWN7I3vVap4NGYUcvSz-51" value="" style="edgeStyle=orthogonalEdgeStyle;rounded=0;orthogonalLoop=1;jettySize=auto;html=1;" edge="1" parent="1" source="ZcWN7I3vVap4NGYUcvSz-52" target="ZcWN7I3vVap4NGYUcvSz-54">
          <mxGeometry relative="1" as="geometry" />
        </mxCell>
        <mxCell id="ZcWN7I3vVap4NGYUcvSz-52" value="Inicia manutenção" style="rounded=1;whiteSpace=wrap;html=1;" vertex="1" parent="1">
          <mxGeometry x="510" y="720" width="120" height="60" as="geometry" />
        </mxCell>
        <mxCell id="ZcWN7I3vVap4NGYUcvSz-53" value="" style="edgeStyle=orthogonalEdgeStyle;rounded=0;orthogonalLoop=1;jettySize=auto;html=1;" edge="1" parent="1" source="ZcWN7I3vVap4NGYUcvSz-54" target="ZcWN7I3vVap4NGYUcvSz-56">
          <mxGeometry relative="1" as="geometry" />
        </mxCell>
        <mxCell id="ZcWN7I3vVap4NGYUcvSz-54" value="Finalização da manutenção" style="rounded=1;whiteSpace=wrap;html=1;" vertex="1" parent="1">
          <mxGeometry x="710" y="720" width="120" height="60" as="geometry" />
        </mxCell>
        <mxCell id="ZcWN7I3vVap4NGYUcvSz-55" value="" style="edgeStyle=orthogonalEdgeStyle;rounded=0;orthogonalLoop=1;jettySize=auto;html=1;" edge="1" parent="1" source="ZcWN7I3vVap4NGYUcvSz-56" target="ZcWN7I3vVap4NGYUcvSz-58">
          <mxGeometry relative="1" as="geometry" />
        </mxCell>
        <mxCell id="ZcWN7I3vVap4NGYUcvSz-56" value="Descrição do problema resolvido com horario." style="rounded=1;whiteSpace=wrap;html=1;" vertex="1" parent="1">
          <mxGeometry x="910" y="720" width="120" height="60" as="geometry" />
        </mxCell>
        <mxCell id="ZcWN7I3vVap4NGYUcvSz-57" value="" style="edgeStyle=orthogonalEdgeStyle;rounded=0;orthogonalLoop=1;jettySize=auto;html=1;" edge="1" parent="1" source="ZcWN7I3vVap4NGYUcvSz-58">
          <mxGeometry relative="1" as="geometry">
            <mxPoint x="1310" y="750" as="targetPoint" />
          </mxGeometry>
        </mxCell>
        <mxCell id="ZcWN7I3vVap4NGYUcvSz-58" value="Envio para o sistema" style="rounded=1;whiteSpace=wrap;html=1;" vertex="1" parent="1">
          <mxGeometry x="1110" y="720" width="120" height="60" as="geometry" />
        </mxCell>
        <mxCell id="ZcWN7I3vVap4NGYUcvSz-62" value="" style="edgeStyle=orthogonalEdgeStyle;rounded=0;orthogonalLoop=1;jettySize=auto;html=1;" edge="1" parent="1" source="ZcWN7I3vVap4NGYUcvSz-59">
          <mxGeometry relative="1" as="geometry">
            <mxPoint x="1515" y="750" as="targetPoint" />
          </mxGeometry>
        </mxCell>
        <mxCell id="ZcWN7I3vVap4NGYUcvSz-59" value="Finalização" style="rounded=1;whiteSpace=wrap;html=1;" vertex="1" parent="1">
          <mxGeometry x="1310" y="720" width="120" height="60" as="geometry" />
        </mxCell>
        <mxCell id="ZcWN7I3vVap4NGYUcvSz-61" value="Envio de concluão para o cliente." style="rounded=1;whiteSpace=wrap;html=1;" vertex="1" parent="1">
          <mxGeometry x="1510" y="720" width="120" height="60" as="geometry" />
        </mxCell>
        <mxCell id="ZcWN7I3vVap4NGYUcvSz-66" value="" style="edgeStyle=orthogonalEdgeStyle;rounded=0;orthogonalLoop=1;jettySize=auto;html=1;" edge="1" parent="1" source="ZcWN7I3vVap4NGYUcvSz-63" target="ZcWN7I3vVap4NGYUcvSz-2">
          <mxGeometry relative="1" as="geometry" />
        </mxCell>
        <mxCell id="ZcWN7I3vVap4NGYUcvSz-67" value="" style="edgeStyle=orthogonalEdgeStyle;rounded=0;orthogonalLoop=1;jettySize=auto;html=1;" edge="1" parent="1" source="ZcWN7I3vVap4NGYUcvSz-63" target="ZcWN7I3vVap4NGYUcvSz-4">
          <mxGeometry relative="1" as="geometry" />
        </mxCell>
        <mxCell id="ZcWN7I3vVap4NGYUcvSz-63" value="" style="rhombus;whiteSpace=wrap;html=1;" vertex="1" parent="1">
          <mxGeometry x="200" y="-20" width="80" height="80" as="geometry" />
        </mxCell>
      </root>
    </mxGraphModel>
  </diagram>
</mxfile>
